<svg width="124" height="20" viewBox="0 0 124 20" fill="none" xmlns="http://www.w3.org/2000/svg">
<path d="M10.9858 6.56534C10.9176 5.87784 10.625 5.34375 10.108 4.96307C9.59091 4.58239 8.8892 4.39204 8.00284 4.39204C7.40057 4.39204 6.89205 4.47727 6.47727 4.64773C6.0625 4.8125 5.74432 5.04261 5.52273 5.33807C5.30682 5.63352 5.19886 5.96875 5.19886 6.34375C5.1875 6.65625 5.25284 6.92898 5.39489 7.16193C5.54261 7.39489 5.74432 7.59659 6 7.76705C6.25568 7.93182 6.55114 8.0767 6.88636 8.2017C7.22159 8.32102 7.57955 8.4233 7.96023 8.50852L9.52841 8.88352C10.2898 9.05398 10.9886 9.28125 11.625 9.56534C12.2614 9.84943 12.8125 10.1989 13.2784 10.6136C13.7443 11.0284 14.1051 11.517 14.3608 12.0795C14.6222 12.642 14.7557 13.2869 14.7614 14.0142C14.7557 15.0824 14.483 16.0085 13.9432 16.7926C13.4091 17.571 12.6364 18.1761 11.625 18.608C10.6193 19.0341 9.40625 19.2472 7.9858 19.2472C6.5767 19.2472 5.34943 19.0312 4.30398 18.5994C3.2642 18.1676 2.4517 17.5284 1.86648 16.6818C1.28693 15.8295 0.982955 14.7756 0.954545 13.5199H4.52557C4.56534 14.1051 4.73295 14.5937 5.02841 14.9858C5.32955 15.3722 5.73011 15.6648 6.23011 15.8636C6.7358 16.0568 7.30682 16.1534 7.94318 16.1534C8.56818 16.1534 9.1108 16.0625 9.57102 15.8807C10.0369 15.6989 10.3977 15.446 10.6534 15.1222C10.9091 14.7983 11.0369 14.4261 11.0369 14.0057C11.0369 13.6136 10.9205 13.2841 10.6875 13.017C10.4602 12.75 10.125 12.5227 9.68182 12.3352C9.24432 12.1477 8.70739 11.9773 8.07102 11.8239L6.17045 11.3466C4.69886 10.9886 3.53693 10.429 2.68466 9.66761C1.83239 8.90625 1.40909 7.88068 1.41477 6.59091C1.40909 5.53409 1.69034 4.6108 2.25852 3.82102C2.83239 3.03125 3.61932 2.41477 4.61932 1.97159C5.61932 1.52841 6.75568 1.30682 8.02841 1.30682C9.32386 1.30682 10.4545 1.52841 11.4205 1.97159C12.392 2.41477 13.1477 3.03125 13.6875 3.82102C14.2273 4.6108 14.5057 5.52557 14.5227 6.56534H10.9858ZM24.1385 5.90909V8.63636H16.255V5.90909H24.1385ZM18.0447 2.77273H21.6754V14.9773C21.6754 15.3125 21.7266 15.5739 21.8288 15.7614C21.9311 15.9432 22.0732 16.071 22.255 16.1449C22.4425 16.2187 22.6584 16.2557 22.9027 16.2557C23.0732 16.2557 23.2436 16.2415 23.4141 16.2131C23.5845 16.179 23.7152 16.1534 23.8061 16.1364L24.3771 18.8381C24.1953 18.8949 23.9396 18.9602 23.6101 19.0341C23.2805 19.1136 22.88 19.1619 22.4084 19.179C21.5334 19.2131 20.7663 19.0966 20.1072 18.8295C19.4538 18.5625 18.9453 18.1477 18.5817 17.5852C18.218 17.0227 18.0391 16.3125 18.0447 15.4545V2.77273ZM30.2365 19.2472C29.4013 19.2472 28.657 19.1023 28.0036 18.8125C27.3501 18.517 26.8331 18.0824 26.4524 17.5085C26.0774 16.929 25.8899 16.2074 25.8899 15.3438C25.8899 14.6165 26.0234 14.0057 26.2905 13.5114C26.5575 13.017 26.9212 12.6193 27.3814 12.3182C27.8416 12.017 28.3643 11.7898 28.9496 11.6364C29.5405 11.483 30.1598 11.375 30.8075 11.3125C31.5689 11.233 32.1825 11.1591 32.6484 11.0909C33.1143 11.017 33.4524 10.9091 33.6626 10.767C33.8729 10.625 33.978 10.4148 33.978 10.1364V10.0852C33.978 9.54545 33.8075 9.12784 33.4666 8.83239C33.1314 8.53693 32.6541 8.3892 32.0348 8.3892C31.3814 8.3892 30.8615 8.53409 30.4751 8.82386C30.0888 9.10795 29.8331 9.46591 29.7081 9.89773L26.3501 9.625C26.5206 8.82955 26.8558 8.14205 27.3558 7.5625C27.8558 6.97727 28.5007 6.52841 29.2905 6.21591C30.0859 5.89773 31.0064 5.73864 32.0518 5.73864C32.7791 5.73864 33.4751 5.82386 34.1399 5.99432C34.8104 6.16477 35.4041 6.42898 35.9212 6.78693C36.4439 7.14489 36.8558 7.60511 37.157 8.16761C37.4581 8.72443 37.6087 9.39205 37.6087 10.1705V19H34.1655V17.1847H34.0632C33.853 17.5938 33.5717 17.9545 33.2195 18.267C32.8672 18.5739 32.4439 18.8153 31.9496 18.9915C31.4553 19.1619 30.8842 19.2472 30.2365 19.2472ZM31.2763 16.7415C31.8104 16.7415 32.282 16.6364 32.6911 16.4261C33.1001 16.2102 33.4212 15.9205 33.6541 15.5568C33.8871 15.1932 34.0036 14.7812 34.0036 14.321V12.9318C33.8899 13.0057 33.7337 13.0739 33.5348 13.1364C33.3416 13.1932 33.1229 13.2472 32.8786 13.2983C32.6342 13.3437 32.3899 13.3864 32.1456 13.4261C31.9013 13.4602 31.6797 13.4915 31.4808 13.5199C31.0547 13.5824 30.6825 13.6818 30.3643 13.8182C30.0462 13.9545 29.799 14.1392 29.6229 14.3722C29.4467 14.5994 29.3587 14.8835 29.3587 15.2244C29.3587 15.7188 29.5376 16.0966 29.8956 16.358C30.2592 16.6136 30.7195 16.7415 31.2763 16.7415ZM40.4936 19V1.54545H44.1243V8.10795H44.2351C44.3942 7.75568 44.6243 7.39773 44.9254 7.03409C45.2322 6.66477 45.63 6.35795 46.1186 6.11364C46.6129 5.86364 47.2266 5.73864 47.9595 5.73864C48.9141 5.73864 49.7947 5.98864 50.6016 6.48864C51.4084 6.98295 52.0533 7.73011 52.5362 8.73011C53.0192 9.72443 53.2607 10.9716 53.2607 12.4716C53.2607 13.9318 53.0249 15.1648 52.5533 16.1705C52.0874 17.1705 51.451 17.929 50.6442 18.446C49.843 18.9574 48.9453 19.2131 47.951 19.2131C47.2464 19.2131 46.647 19.0966 46.1527 18.8636C45.6641 18.6307 45.2635 18.3381 44.951 17.9858C44.6385 17.6278 44.3999 17.267 44.2351 16.9034H44.0732V19H40.4936ZM44.0476 12.4545C44.0476 13.233 44.1555 13.9119 44.3714 14.4915C44.5874 15.071 44.8999 15.5227 45.3089 15.8466C45.718 16.1648 46.2152 16.3239 46.8004 16.3239C47.3913 16.3239 47.8913 16.1619 48.3004 15.8381C48.7095 15.5085 49.0192 15.054 49.2294 14.4744C49.4453 13.8892 49.5533 13.2159 49.5533 12.4545C49.5533 11.6989 49.4482 11.0341 49.2379 10.4602C49.0277 9.88636 48.718 9.4375 48.3089 9.11364C47.8999 8.78977 47.397 8.62784 46.8004 8.62784C46.2095 8.62784 45.7095 8.78409 45.3004 9.09659C44.897 9.40909 44.5874 9.85227 44.3714 10.4261C44.1555 11 44.0476 11.6761 44.0476 12.4545ZM55.6832 19V5.90909H59.3139V19H55.6832ZM57.5071 4.22159C56.9673 4.22159 56.5043 4.04261 56.1179 3.68466C55.7372 3.32102 55.5469 2.88636 55.5469 2.38068C55.5469 1.88068 55.7372 1.4517 56.1179 1.09375C56.5043 0.730113 56.9673 0.548295 57.5071 0.548295C58.0469 0.548295 58.5071 0.730113 58.8878 1.09375C59.2741 1.4517 59.4673 1.88068 59.4673 2.38068C59.4673 2.88636 59.2741 3.32102 58.8878 3.68466C58.5071 4.04261 58.0469 4.22159 57.5071 4.22159Z" fill="black"/>
<path d="M62.2905 19V1.54545H65.9808V15.9574H73.4638V19H62.2905ZM75.8395 19V5.90909H79.4702V19H75.8395ZM77.6634 4.22159C77.1236 4.22159 76.6605 4.04261 76.2741 3.68466C75.8935 3.32102 75.7031 2.88636 75.7031 2.38068C75.7031 1.88068 75.8935 1.4517 76.2741 1.09375C76.6605 0.730113 77.1236 0.548295 77.6634 0.548295C78.2031 0.548295 78.6634 0.730113 79.044 1.09375C79.4304 1.4517 79.6236 1.88068 79.6236 2.38068C79.6236 2.88636 79.4304 3.32102 79.044 3.68466C78.6634 4.04261 78.2031 4.22159 77.6634 4.22159ZM89.3416 5.90909V8.63636H81.4581V5.90909H89.3416ZM83.2479 2.77273H86.8786V14.9773C86.8786 15.3125 86.9297 15.5739 87.032 15.7614C87.1342 15.9432 87.2763 16.071 87.4581 16.1449C87.6456 16.2187 87.8615 16.2557 88.1058 16.2557C88.2763 16.2557 88.4467 16.2415 88.6172 16.2131C88.7876 16.179 88.9183 16.1534 89.0092 16.1364L89.5803 18.8381C89.3984 18.8949 89.1428 18.9602 88.8132 19.0341C88.4837 19.1136 88.0831 19.1619 87.6115 19.179C86.7365 19.2131 85.9695 19.0966 85.3104 18.8295C84.657 18.5625 84.1484 18.1477 83.7848 17.5852C83.4212 17.0227 83.2422 16.3125 83.2479 15.4545V2.77273ZM98.6697 5.90909V8.63636H90.7862V5.90909H98.6697ZM92.576 2.77273H96.2067V14.9773C96.2067 15.3125 96.2578 15.5739 96.3601 15.7614C96.4624 15.9432 96.6044 16.071 96.7862 16.1449C96.9737 16.2187 97.1896 16.2557 97.4339 16.2557C97.6044 16.2557 97.7749 16.2415 97.9453 16.2131C98.1158 16.179 98.2464 16.1534 98.3374 16.1364L98.9084 18.8381C98.7266 18.8949 98.4709 18.9602 98.1413 19.0341C97.8118 19.1136 97.4112 19.1619 96.9396 19.179C96.0646 19.2131 95.2976 19.0966 94.6385 18.8295C93.9851 18.5625 93.4766 18.1477 93.1129 17.5852C92.7493 17.0227 92.5703 16.3125 92.576 15.4545V2.77273ZM106.86 19.2557C105.513 19.2557 104.354 18.983 103.383 18.4375C102.417 17.8864 101.673 17.108 101.15 16.1023C100.627 15.0909 100.366 13.8949 100.366 12.5142C100.366 11.1676 100.627 9.9858 101.15 8.96875C101.673 7.9517 102.408 7.15909 103.357 6.59091C104.312 6.02273 105.431 5.73864 106.715 5.73864C107.579 5.73864 108.383 5.87784 109.127 6.15625C109.877 6.42898 110.531 6.84091 111.087 7.39205C111.65 7.94318 112.087 8.63636 112.4 9.47159C112.712 10.3011 112.869 11.2727 112.869 12.3864V13.3835H101.815V11.1335H109.451C109.451 10.6108 109.337 10.1477 109.11 9.74432C108.883 9.34091 108.567 9.02557 108.164 8.7983C107.766 8.56534 107.303 8.44886 106.775 8.44886C106.224 8.44886 105.735 8.5767 105.309 8.83239C104.888 9.08239 104.559 9.42045 104.32 9.84659C104.082 10.267 103.96 10.7358 103.954 11.2528V13.392C103.954 14.0398 104.073 14.5994 104.312 15.071C104.556 15.5426 104.9 15.9062 105.343 16.1619C105.786 16.4176 106.312 16.5455 106.92 16.5455C107.323 16.5455 107.692 16.4886 108.028 16.375C108.363 16.2614 108.65 16.0909 108.888 15.8636C109.127 15.6364 109.309 15.358 109.434 15.0284L112.792 15.25C112.621 16.0568 112.272 16.7614 111.744 17.3636C111.221 17.9602 110.545 18.4261 109.715 18.7614C108.891 19.0909 107.94 19.2557 106.86 19.2557ZM115.238 19V5.90909H118.758V8.19318H118.894C119.133 7.38068 119.533 6.76705 120.096 6.35227C120.658 5.93182 121.306 5.72159 122.039 5.72159C122.221 5.72159 122.417 5.73295 122.627 5.75568C122.837 5.77841 123.022 5.80966 123.181 5.84943V9.07102C123.011 9.01989 122.775 8.97443 122.474 8.93466C122.173 8.89489 121.897 8.875 121.647 8.875C121.113 8.875 120.636 8.99148 120.215 9.22443C119.8 9.4517 119.471 9.76989 119.227 10.179C118.988 10.5881 118.869 11.0597 118.869 11.5938V19H115.238Z" fill="#65BDF9"/>
</svg>
